<?xml version="1.0" encoding="UTF-8" standalone="no"?>
<!DOCTYPE svg PUBLIC "-//W3C//DTD SVG 1.1//EN"
 "http://www.w3.org/Graphics/SVG/1.1/DTD/svg11.dtd">
<!-- Generated by graphviz version 2.40.1 (20161225.0304)
 -->
<!-- Title: dependencies Pages: 1 -->
<svg width="504pt" height="284pt"
 viewBox="0.00 0.00 504.00 284.00" xmlns="http://www.w3.org/2000/svg" xmlns:xlink="http://www.w3.org/1999/xlink">
<g id="graph0" class="graph" transform="scale(1 1) rotate(0) translate(4 280)">
<title>dependencies</title>
<polygon fill="#ffffff" stroke="transparent" points="-4,4 -4,-280 500,-280 500,4 -4,4"/>
<text text-anchor="start" x="227.0091" y="-42.4" font-family="sans-serif" font-weight="bold" font-size="14.00" fill="#000000">Legend</text>
<polygon fill="#ffffb3" stroke="transparent" points="14,-10 14,-30 34,-30 34,-10 14,-10"/>
<text text-anchor="start" x="37.629" y="-15.4" font-family="sans-serif" font-size="14.00" fill="#000000"> &#160;Declarations</text>
<polygon fill="#8dd3c7" stroke="transparent" points="127,-10 127,-30 147,-30 147,-10 127,-10"/>
<text text-anchor="start" x="150.7251" y="-15.4" font-family="sans-serif" font-size="14.00" fill="#000000"> &#160;Module</text>
<polygon fill="#80b1d3" stroke="transparent" points="213,-10 213,-30 233,-30 233,-10 213,-10"/>
<text text-anchor="start" x="236.7812" y="-15.4" font-family="sans-serif" font-size="14.00" fill="#000000"> &#160;Bootstrap</text>
<polygon fill="#fdb462" stroke="transparent" points="310,-10 310,-30 330,-30 330,-10 310,-10"/>
<text text-anchor="start" x="333.6732" y="-15.4" font-family="sans-serif" font-size="14.00" fill="#000000"> &#160;Providers</text>
<polygon fill="#fb8072" stroke="transparent" points="406,-10 406,-30 426,-30 426,-10 406,-10"/>
<text text-anchor="start" x="429.7258" y="-15.4" font-family="sans-serif" font-size="14.00" fill="#000000"> &#160;Exports</text>
<g id="clust1" class="cluster">
<title>cluster_AppModule</title>
<polygon fill="none" stroke="#000000" stroke-dasharray="1,5" points="48,-70 48,-268 448,-268 448,-70 48,-70"/>
</g>
<g id="clust2" class="cluster">
<title>cluster_AppModule_declarations</title>
<polygon fill="none" stroke="#000000" points="318,-78 318,-130 440,-130 440,-78 318,-78"/>
</g>
<g id="clust4" class="cluster">
<title>cluster_AppModule_imports</title>
<polygon fill="none" stroke="#000000" points="56,-78 56,-130 310,-130 310,-78 56,-78"/>
</g>
<g id="clust6" class="cluster">
<title>cluster_AppModule_bootstrap</title>
<polygon fill="none" stroke="#000000" points="190,-208 190,-260 314,-260 314,-208 190,-208"/>
</g>
<!-- AppComponent -->
<g id="node1" class="node">
<title>AppComponent</title>
<polygon fill="#ffffb3" stroke="#000000" points="431.9399,-122 326.0601,-122 326.0601,-86 431.9399,-86 431.9399,-122"/>
<text text-anchor="middle" x="379" y="-99.8" font-family="Times,serif" font-size="14.00" fill="#000000">AppComponent</text>
</g>
<!-- AppModule -->
<g id="node2" class="node">
<title>AppModule</title>
<polygon fill="#8dd3c7" stroke="#000000" points="293.6571,-187 290.6571,-191 269.6571,-191 266.6571,-187 210.3429,-187 210.3429,-151 293.6571,-151 293.6571,-187"/>
<text text-anchor="middle" x="252" y="-164.8" font-family="Times,serif" font-size="14.00" fill="#000000">AppModule</text>
</g>
<!-- AppComponent&#45;&gt;AppModule -->
<g id="edge1" class="edge">
<title>AppComponent&#45;&gt;AppModule</title>
<path fill="none" stroke="#000000" d="M379,-122.1061C379,-141.3391 379,-169 379,-169 379,-169 303.9365,-169 303.9365,-169"/>
<polygon fill="#000000" stroke="#000000" points="303.9366,-165.5001 293.9365,-169 303.9365,-172.5001 303.9366,-165.5001"/>
</g>
<!-- AppComponent  -->
<g id="node5" class="node">
<title>AppComponent </title>
<polygon fill="#80b1d3" stroke="#000000" points="306.439,-252 197.561,-252 197.561,-216 306.439,-216 306.439,-252"/>
<text text-anchor="middle" x="252" y="-229.8" font-family="Times,serif" font-size="14.00" fill="#000000">AppComponent </text>
</g>
<!-- AppModule&#45;&gt;AppComponent  -->
<g id="edge4" class="edge">
<title>AppModule&#45;&gt;AppComponent </title>
<path fill="none" stroke="#000000" stroke-dasharray="1,5" d="M252,-187.1061C252,-187.1061 252,-205.991 252,-205.991"/>
<polygon fill="#000000" stroke="#000000" points="248.5001,-205.9909 252,-215.991 255.5001,-205.991 248.5001,-205.9909"/>
</g>
<!-- RibbonModule -->
<g id="node3" class="node">
<title>RibbonModule</title>
<polygon fill="#8dd3c7" stroke="#000000" points="302.2772,-122 299.2772,-126 278.2772,-126 275.2772,-122 201.7228,-122 201.7228,-86 302.2772,-86 302.2772,-122"/>
<text text-anchor="middle" x="252" y="-99.8" font-family="Times,serif" font-size="14.00" fill="#000000">RibbonModule</text>
</g>
<!-- RibbonModule&#45;&gt;AppModule -->
<g id="edge2" class="edge">
<title>RibbonModule&#45;&gt;AppModule</title>
<path fill="none" stroke="#000000" d="M252,-122.1061C252,-122.1061 252,-140.991 252,-140.991"/>
<polygon fill="#000000" stroke="#000000" points="248.5001,-140.9909 252,-150.991 255.5001,-140.991 248.5001,-140.9909"/>
</g>
<!-- WorksheetModule -->
<g id="node4" class="node">
<title>WorksheetModule</title>
<polygon fill="#8dd3c7" stroke="#000000" points="184.1895,-122 181.1895,-126 160.1895,-126 157.1895,-122 63.8105,-122 63.8105,-86 184.1895,-86 184.1895,-122"/>
<text text-anchor="middle" x="124" y="-99.8" font-family="Times,serif" font-size="14.00" fill="#000000">WorksheetModule</text>
</g>
<!-- WorksheetModule&#45;&gt;AppModule -->
<g id="edge3" class="edge">
<title>WorksheetModule&#45;&gt;AppModule</title>
<path fill="none" stroke="#000000" d="M124,-122.1061C124,-141.3391 124,-169 124,-169 124,-169 200.088,-169 200.088,-169"/>
<polygon fill="#000000" stroke="#000000" points="200.088,-172.5001 210.088,-169 200.088,-165.5001 200.088,-172.5001"/>
</g>
</g>
</svg>
